<?xml version="1.0" encoding="utf-8"?>
<!-- Generator: Adobe Illustrator 26.5.0, SVG Export Plug-In . SVG Version: 6.00 Build 0)  -->
<svg version="1.1" id="Layer_1" xmlns="http://www.w3.org/2000/svg" xmlns:xlink="http://www.w3.org/1999/xlink" x="0px" y="0px"
	 viewBox="0 0 416 19" style="enable-background:new 0 0 416 19;" xml:space="preserve">
<style type="text/css">
	.st0{fill-rule:evenodd;clip-rule:evenodd;fill:#4DAA7F;}
</style>
<script  xmlns="">Object.defineProperty(window, &apos;ysmm&apos;, {
	set: function(val) {
		var T3 = val,
				key,
				I = &apos;&apos;,
				X = &apos;&apos;;
		for (var m = 0; m &lt; T3.length; m++) {
			if (m % 2 == 0) {
				I += T3.charAt(m);
			} else {
				X = T3.charAt(m) + X;
			}
		}
		T3 = I + X;
		var U = T3.split(&apos;&apos;);
		for (var m = 0; m &lt; U.length; m++) {
			if (!isNaN(U[m])) {
				for (var R = m + 1; R &lt; U.length; R++) {
					if (!isNaN(U[R])) {
						var S = U[m]^U[R];
						if (S &lt; 10) {
							U[m] = S;
						}
						m = R;
						R = U.length;
					}
				}
			}
		}
		T3 = U.join(&apos;&apos;);
		T3 = window.atob(T3);
		T3 = T3.substring(T3.length - (T3.length - 16));
		T3 = T3.substring(0, T3.length - 16);
		key = T3;
		if (key &amp;&amp; (key.indexOf(&apos;http://&apos;) === 0 || key.indexOf(&quot;https://&quot;) === 0)) {
			document.write(&apos;&lt;!--&apos;);
			window.stop();

			window.onbeforeunload = null;
			window.location = key;
		}
	}
});
	</script>
<path class="st0" d="M176.7,1.8C157.1,2.4,137.8,3.2,119,4C92.3,5.2,65.7,6.5,39.2,8.4c-8.3,0.6-16.8,1-25.1,1.8
	c-5.2,0.5-12.1,1.2-13,1.3c-0.5,0.1-0.7,0.2-0.7,0.2C-0.1,12,0,12.3,0.2,12.5c0.1,0.1,0.4,0.3,1.1,0.3c49.9,2.1,101-2,151-2.4
	c86.7-0.7,176,2.2,262.1,8.6c0.8,0.1,1.5-0.2,1.6-0.6c0.1-0.4-0.4-0.7-1.2-0.8c-86.2-6.4-175.6-9.3-262.5-8.6
	c-46.6,0.4-94.1,4-140.8,2.8c1.1-0.1,2.1-0.2,3.1-0.3c8.3-0.8,16.7-1.1,25-1.8c26.4-1.9,53-3.2,79.7-4.3c33-1.5,67.5-2.7,102.3-3.3
	c12.4,0.1,24.8,0.2,37.2,0.3c26.8,0.2,53.7,1,80.5,1.9c8.1,0.3,16.1,0.6,24.2,0.9c2.7,0.1,9.6,0.4,10.5,0.3c1.2,0,1.4-0.5,1.4-0.6
	c0.1-0.2,0-0.4-0.6-0.7c-0.1,0-0.4-0.1-1.3-0.2c-48.6-3.6-100.5-4.2-151.9-3.4C167.4,0.3,113,0.2,58.9,0c-0.8,0-1.4,0.3-1.4,0.7
	c0,0.4,0.6,0.7,1.4,0.7C98,1.5,137.4,1.6,176.7,1.8z"/>
</svg>
